<svg width="595" height="73" viewBox="0 0 595 73" fill="none" xmlns="http://www.w3.org/2000/svg">
<path d="M0.738636 12.892V12.0114C1.52936 12.0114 2.08097 11.8456 2.39347 11.5142C2.7107 11.1828 2.86932 10.6288 2.86932 9.85227V7.57955C2.86932 6.92614 2.93087 6.36032 3.05398 5.8821C3.18182 5.40388 3.38778 5.00852 3.67188 4.69602C3.95597 4.38352 4.33475 4.15152 4.80824 4C5.28172 3.84848 5.86648 3.77273 6.5625 3.77273V5.16477C6.01326 5.16477 5.58002 5.25 5.26278 5.42045C4.95028 5.59091 4.72775 5.85606 4.59517 6.21591C4.46733 6.57102 4.40341 7.02557 4.40341 7.57955V10.4205C4.40341 10.7898 4.35369 11.1259 4.25426 11.429C4.15956 11.732 3.98201 11.9924 3.72159 12.2102C3.46117 12.428 3.08949 12.5961 2.60653 12.7145C2.12831 12.8329 1.50568 12.892 0.738636 12.892ZM6.5625 21.9545C5.86648 21.9545 5.28172 21.8788 4.80824 21.7273C4.33475 21.5758 3.95597 21.3438 3.67188 21.0312C3.38778 20.7188 3.18182 20.3234 3.05398 19.8452C2.93087 19.367 2.86932 18.8011 2.86932 18.1477V15.875C2.86932 15.0985 2.7107 14.5445 2.39347 14.2131C2.08097 13.8816 1.52936 13.7159 0.738636 13.7159V12.8352C1.50568 12.8352 2.12831 12.8944 2.60653 13.0128C3.08949 13.1312 3.46117 13.2992 3.72159 13.517C3.98201 13.7348 4.15956 13.9953 4.25426 14.2983C4.35369 14.6013 4.40341 14.9375 4.40341 15.3068V18.1477C4.40341 18.7017 4.46733 19.1563 4.59517 19.5114C4.72775 19.8665 4.95028 20.1293 5.26278 20.2997C5.58002 20.4749 6.01326 20.5625 6.5625 20.5625V21.9545ZM0.738636 13.7159V12.0114H2.41477V13.7159H0.738636ZM47.5018 12.8352V13.7159C46.7111 13.7159 46.1571 13.8816 45.8398 14.2131C45.5273 14.5445 45.3711 15.0985 45.3711 15.875V18.1477C45.3711 18.8011 45.3072 19.367 45.1793 19.8452C45.0562 20.3234 44.8526 20.7188 44.5685 21.0312C44.2844 21.3438 43.9057 21.5758 43.4322 21.7273C42.9587 21.8788 42.3739 21.9545 41.6779 21.9545V20.5625C42.2272 20.5625 42.658 20.4749 42.9705 20.2997C43.2878 20.1293 43.5103 19.8665 43.6381 19.5114C43.7707 19.1563 43.837 18.7017 43.837 18.1477V15.3068C43.837 14.9375 43.8844 14.6013 43.979 14.2983C44.0785 13.9953 44.2584 13.7348 44.5188 13.517C44.7792 13.2992 45.1486 13.1312 45.6268 13.0128C46.1097 12.8944 46.7347 12.8352 47.5018 12.8352ZM41.6779 3.77273C42.3739 3.77273 42.9587 3.84848 43.4322 4C43.9057 4.15152 44.2844 4.38352 44.5685 4.69602C44.8526 5.00852 45.0562 5.40388 45.1793 5.8821C45.3072 6.36032 45.3711 6.92614 45.3711 7.57955V9.85227C45.3711 10.6288 45.5273 11.1828 45.8398 11.5142C46.1571 11.8456 46.7111 12.0114 47.5018 12.0114V12.892C46.7347 12.892 46.1097 12.8329 45.6268 12.7145C45.1486 12.5961 44.7792 12.428 44.5188 12.2102C44.2584 11.9924 44.0785 11.732 43.979 11.429C43.8844 11.1259 43.837 10.7898 43.837 10.4205V7.57955C43.837 7.02557 43.7707 6.57102 43.6381 6.21591C43.5103 5.85606 43.2878 5.59091 42.9705 5.42045C42.658 5.25 42.2272 5.16477 41.6779 5.16477V3.77273ZM47.5018 12.0114V13.7159H45.8256V12.0114H47.5018Z" fill="white"/>
<path d="M0.738636 61.892V61.0114C1.52936 61.0114 2.08097 60.8456 2.39347 60.5142C2.7107 60.1828 2.86932 59.6288 2.86932 58.8523V56.5795C2.86932 55.9261 2.93087 55.3603 3.05398 54.8821C3.18182 54.4039 3.38778 54.0085 3.67188 53.696C3.95597 53.3835 4.33475 53.1515 4.80824 53C5.28172 52.8485 5.86648 52.7727 6.5625 52.7727V54.1648C6.01326 54.1648 5.58002 54.25 5.26278 54.4205C4.95028 54.5909 4.72775 54.8561 4.59517 55.2159C4.46733 55.571 4.40341 56.0256 4.40341 56.5795V59.4205C4.40341 59.7898 4.35369 60.1259 4.25426 60.429C4.15956 60.732 3.98201 60.9924 3.72159 61.2102C3.46117 61.428 3.08949 61.5961 2.60653 61.7145C2.12831 61.8329 1.50568 61.892 0.738636 61.892ZM6.5625 70.9545C5.86648 70.9545 5.28172 70.8788 4.80824 70.7273C4.33475 70.5758 3.95597 70.3438 3.67188 70.0312C3.38778 69.7188 3.18182 69.3234 3.05398 68.8452C2.93087 68.367 2.86932 67.8011 2.86932 67.1477V64.875C2.86932 64.0985 2.7107 63.5445 2.39347 63.2131C2.08097 62.8816 1.52936 62.7159 0.738636 62.7159V61.8352C1.50568 61.8352 2.12831 61.8944 2.60653 62.0128C3.08949 62.1312 3.46117 62.2992 3.72159 62.517C3.98201 62.7348 4.15956 62.9953 4.25426 63.2983C4.35369 63.6013 4.40341 63.9375 4.40341 64.3068V67.1477C4.40341 67.7017 4.46733 68.1563 4.59517 68.5114C4.72775 68.8665 4.95028 69.1293 5.26278 69.2997C5.58002 69.4749 6.01326 69.5625 6.5625 69.5625V70.9545ZM0.738636 62.7159V61.0114H2.41477V62.7159H0.738636ZM47.5018 61.8352V62.7159C46.7111 62.7159 46.1571 62.8816 45.8398 63.2131C45.5273 63.5445 45.3711 64.0985 45.3711 64.875V67.1477C45.3711 67.8011 45.3072 68.367 45.1793 68.8452C45.0562 69.3234 44.8526 69.7188 44.5685 70.0312C44.2844 70.3438 43.9057 70.5758 43.4322 70.7273C42.9587 70.8788 42.3739 70.9545 41.6779 70.9545V69.5625C42.2272 69.5625 42.658 69.4749 42.9705 69.2997C43.2878 69.1293 43.5103 68.8665 43.6381 68.5114C43.7707 68.1563 43.837 67.7017 43.837 67.1477V64.3068C43.837 63.9375 43.8844 63.6013 43.979 63.2983C44.0785 62.9953 44.2584 62.7348 44.5188 62.517C44.7792 62.2992 45.1486 62.1312 45.6268 62.0128C46.1097 61.8944 46.7347 61.8352 47.5018 61.8352ZM41.6779 52.7727C42.3739 52.7727 42.9587 52.8485 43.4322 53C43.9057 53.1515 44.2844 53.3835 44.5685 53.696C44.8526 54.0085 45.0562 54.4039 45.1793 54.8821C45.3072 55.3603 45.3711 55.9261 45.3711 56.5795V58.8523C45.3711 59.6288 45.5273 60.1828 45.8398 60.5142C46.1571 60.8456 46.7111 61.0114 47.5018 61.0114V61.892C46.7347 61.892 46.1097 61.8329 45.6268 61.7145C45.1486 61.5961 44.7792 61.428 44.5188 61.2102C44.2584 60.9924 44.0785 60.732 43.979 60.429C43.8844 60.1259 43.837 59.7898 43.837 59.4205V56.5795C43.837 56.0256 43.7707 55.571 43.6381 55.2159C43.5103 54.8561 43.2878 54.5909 42.9705 54.4205C42.658 54.25 42.2272 54.1648 41.6779 54.1648V52.7727ZM47.5018 61.0114V62.7159H45.8256V61.0114H47.5018Z" fill="white"/>
<path d="M78.7386 12.892V12.0114C79.5294 12.0114 80.081 11.8456 80.3935 11.5142C80.7107 11.1828 80.8693 10.6288 80.8693 9.85227V7.57955C80.8693 6.92614 80.9309 6.36032 81.054 5.8821C81.1818 5.40388 81.3878 5.00852 81.6719 4.69602C81.956 4.38352 82.3348 4.15152 82.8082 4C83.2817 3.84848 83.8665 3.77273 84.5625 3.77273V5.16477C84.0133 5.16477 83.58 5.25 83.2628 5.42045C82.9503 5.59091 82.7277 5.85606 82.5952 6.21591C82.4673 6.57102 82.4034 7.02557 82.4034 7.57955V10.4205C82.4034 10.7898 82.3537 11.1259 82.2543 11.429C82.1596 11.732 81.982 11.9924 81.7216 12.2102C81.4612 12.428 81.0895 12.5961 80.6065 12.7145C80.1283 12.8329 79.5057 12.892 78.7386 12.892ZM84.5625 21.9545C83.8665 21.9545 83.2817 21.8788 82.8082 21.7273C82.3348 21.5758 81.956 21.3438 81.6719 21.0312C81.3878 20.7188 81.1818 20.3234 81.054 19.8452C80.9309 19.367 80.8693 18.8011 80.8693 18.1477V15.875C80.8693 15.0985 80.7107 14.5445 80.3935 14.2131C80.081 13.8816 79.5294 13.7159 78.7386 13.7159V12.8352C79.5057 12.8352 80.1283 12.8944 80.6065 13.0128C81.0895 13.1312 81.4612 13.2992 81.7216 13.517C81.982 13.7348 82.1596 13.9953 82.2543 14.2983C82.3537 14.6013 82.4034 14.9375 82.4034 15.3068V18.1477C82.4034 18.7017 82.4673 19.1563 82.5952 19.5114C82.7277 19.8665 82.9503 20.1293 83.2628 20.2997C83.58 20.4749 84.0133 20.5625 84.5625 20.5625V21.9545ZM78.7386 13.7159V12.0114H80.4148V13.7159H78.7386ZM125.502 12.8352V13.7159C124.711 13.7159 124.157 13.8816 123.84 14.2131C123.527 14.5445 123.371 15.0985 123.371 15.875V18.1477C123.371 18.8011 123.307 19.367 123.179 19.8452C123.056 20.3234 122.853 20.7188 122.569 21.0312C122.284 21.3438 121.906 21.5758 121.432 21.7273C120.959 21.8788 120.374 21.9545 119.678 21.9545V20.5625C120.227 20.5625 120.658 20.4749 120.971 20.2997C121.288 20.1293 121.51 19.8665 121.638 19.5114C121.771 19.1563 121.837 18.7017 121.837 18.1477V15.3068C121.837 14.9375 121.884 14.6013 121.979 14.2983C122.078 13.9953 122.258 13.7348 122.519 13.517C122.779 13.2992 123.149 13.1312 123.627 13.0128C124.11 12.8944 124.735 12.8352 125.502 12.8352ZM119.678 3.77273C120.374 3.77273 120.959 3.84848 121.432 4C121.906 4.15152 122.284 4.38352 122.569 4.69602C122.853 5.00852 123.056 5.40388 123.179 5.8821C123.307 6.36032 123.371 6.92614 123.371 7.57955V9.85227C123.371 10.6288 123.527 11.1828 123.84 11.5142C124.157 11.8456 124.711 12.0114 125.502 12.0114V12.892C124.735 12.892 124.11 12.8329 123.627 12.7145C123.149 12.5961 122.779 12.428 122.519 12.2102C122.258 11.9924 122.078 11.732 121.979 11.429C121.884 11.1259 121.837 10.7898 121.837 10.4205V7.57955C121.837 7.02557 121.771 6.57102 121.638 6.21591C121.51 5.85606 121.288 5.59091 120.971 5.42045C120.658 5.25 120.227 5.16477 119.678 5.16477V3.77273ZM125.502 12.0114V13.7159H123.826V12.0114H125.502Z" fill="white"/>
<path d="M78.7386 61.892V61.0114C79.5294 61.0114 80.081 60.8456 80.3935 60.5142C80.7107 60.1828 80.8693 59.6288 80.8693 58.8523V56.5795C80.8693 55.9261 80.9309 55.3603 81.054 54.8821C81.1818 54.4039 81.3878 54.0085 81.6719 53.696C81.956 53.3835 82.3348 53.1515 82.8082 53C83.2817 52.8485 83.8665 52.7727 84.5625 52.7727V54.1648C84.0133 54.1648 83.58 54.25 83.2628 54.4205C82.9503 54.5909 82.7277 54.8561 82.5952 55.2159C82.4673 55.571 82.4034 56.0256 82.4034 56.5795V59.4205C82.4034 59.7898 82.3537 60.1259 82.2543 60.429C82.1596 60.732 81.982 60.9924 81.7216 61.2102C81.4612 61.428 81.0895 61.5961 80.6065 61.7145C80.1283 61.8329 79.5057 61.892 78.7386 61.892ZM84.5625 70.9545C83.8665 70.9545 83.2817 70.8788 82.8082 70.7273C82.3348 70.5758 81.956 70.3438 81.6719 70.0312C81.3878 69.7188 81.1818 69.3234 81.054 68.8452C80.9309 68.367 80.8693 67.8011 80.8693 67.1477V64.875C80.8693 64.0985 80.7107 63.5445 80.3935 63.2131C80.081 62.8816 79.5294 62.7159 78.7386 62.7159V61.8352C79.5057 61.8352 80.1283 61.8944 80.6065 62.0128C81.0895 62.1312 81.4612 62.2992 81.7216 62.517C81.982 62.7348 82.1596 62.9953 82.2543 63.2983C82.3537 63.6013 82.4034 63.9375 82.4034 64.3068V67.1477C82.4034 67.7017 82.4673 68.1563 82.5952 68.5114C82.7277 68.8665 82.9503 69.1293 83.2628 69.2997C83.58 69.4749 84.0133 69.5625 84.5625 69.5625V70.9545ZM78.7386 62.7159V61.0114H80.4148V62.7159H78.7386ZM125.502 61.8352V62.7159C124.711 62.7159 124.157 62.8816 123.84 63.2131C123.527 63.5445 123.371 64.0985 123.371 64.875V67.1477C123.371 67.8011 123.307 68.367 123.179 68.8452C123.056 69.3234 122.853 69.7188 122.569 70.0312C122.284 70.3438 121.906 70.5758 121.432 70.7273C120.959 70.8788 120.374 70.9545 119.678 70.9545V69.5625C120.227 69.5625 120.658 69.4749 120.971 69.2997C121.288 69.1293 121.51 68.8665 121.638 68.5114C121.771 68.1563 121.837 67.7017 121.837 67.1477V64.3068C121.837 63.9375 121.884 63.6013 121.979 63.2983C122.078 62.9953 122.258 62.7348 122.519 62.517C122.779 62.2992 123.149 62.1312 123.627 62.0128C124.11 61.8944 124.735 61.8352 125.502 61.8352ZM119.678 52.7727C120.374 52.7727 120.959 52.8485 121.432 53C121.906 53.1515 122.284 53.3835 122.569 53.696C122.853 54.0085 123.056 54.4039 123.179 54.8821C123.307 55.3603 123.371 55.9261 123.371 56.5795V58.8523C123.371 59.6288 123.527 60.1828 123.84 60.5142C124.157 60.8456 124.711 61.0114 125.502 61.0114V61.892C124.735 61.892 124.11 61.8329 123.627 61.7145C123.149 61.5961 122.779 61.428 122.519 61.2102C122.258 60.9924 122.078 60.732 121.979 60.429C121.884 60.1259 121.837 59.7898 121.837 59.4205V56.5795C121.837 56.0256 121.771 55.571 121.638 55.2159C121.51 54.8561 121.288 54.5909 120.971 54.4205C120.658 54.25 120.227 54.1648 119.678 54.1648V52.7727ZM125.502 61.0114V62.7159H123.826V61.0114H125.502Z" fill="white"/>
<path d="M156.739 12.892V12.0114C157.529 12.0114 158.081 11.8456 158.393 11.5142C158.711 11.1828 158.869 10.6288 158.869 9.85227V7.57955C158.869 6.92614 158.931 6.36032 159.054 5.8821C159.182 5.40388 159.388 5.00852 159.672 4.69602C159.956 4.38352 160.335 4.15152 160.808 4C161.282 3.84848 161.866 3.77273 162.562 3.77273V5.16477C162.013 5.16477 161.58 5.25 161.263 5.42045C160.95 5.59091 160.728 5.85606 160.595 6.21591C160.467 6.57102 160.403 7.02557 160.403 7.57955V10.4205C160.403 10.7898 160.354 11.1259 160.254 11.429C160.16 11.732 159.982 11.9924 159.722 12.2102C159.461 12.428 159.089 12.5961 158.607 12.7145C158.128 12.8329 157.506 12.892 156.739 12.892ZM162.562 21.9545C161.866 21.9545 161.282 21.8788 160.808 21.7273C160.335 21.5758 159.956 21.3438 159.672 21.0312C159.388 20.7188 159.182 20.3234 159.054 19.8452C158.931 19.367 158.869 18.8011 158.869 18.1477V15.875C158.869 15.0985 158.711 14.5445 158.393 14.2131C158.081 13.8816 157.529 13.7159 156.739 13.7159V12.8352C157.506 12.8352 158.128 12.8944 158.607 13.0128C159.089 13.1312 159.461 13.2992 159.722 13.517C159.982 13.7348 160.16 13.9953 160.254 14.2983C160.354 14.6013 160.403 14.9375 160.403 15.3068V18.1477C160.403 18.7017 160.467 19.1563 160.595 19.5114C160.728 19.8665 160.95 20.1293 161.263 20.2997C161.58 20.4749 162.013 20.5625 162.562 20.5625V21.9545ZM156.739 13.7159V12.0114H158.415V13.7159H156.739ZM203.502 12.8352V13.7159C202.711 13.7159 202.157 13.8816 201.84 14.2131C201.527 14.5445 201.371 15.0985 201.371 15.875V18.1477C201.371 18.8011 201.307 19.367 201.179 19.8452C201.056 20.3234 200.853 20.7188 200.569 21.0312C200.284 21.3438 199.906 21.5758 199.432 21.7273C198.959 21.8788 198.374 21.9545 197.678 21.9545V20.5625C198.227 20.5625 198.658 20.4749 198.971 20.2997C199.288 20.1293 199.51 19.8665 199.638 19.5114C199.771 19.1563 199.837 18.7017 199.837 18.1477V15.3068C199.837 14.9375 199.884 14.6013 199.979 14.2983C200.078 13.9953 200.258 13.7348 200.519 13.517C200.779 13.2992 201.149 13.1312 201.627 13.0128C202.11 12.8944 202.735 12.8352 203.502 12.8352ZM197.678 3.77273C198.374 3.77273 198.959 3.84848 199.432 4C199.906 4.15152 200.284 4.38352 200.569 4.69602C200.853 5.00852 201.056 5.40388 201.179 5.8821C201.307 6.36032 201.371 6.92614 201.371 7.57955V9.85227C201.371 10.6288 201.527 11.1828 201.84 11.5142C202.157 11.8456 202.711 12.0114 203.502 12.0114V12.892C202.735 12.892 202.11 12.8329 201.627 12.7145C201.149 12.5961 200.779 12.428 200.519 12.2102C200.258 11.9924 200.078 11.732 199.979 11.429C199.884 11.1259 199.837 10.7898 199.837 10.4205V7.57955C199.837 7.02557 199.771 6.57102 199.638 6.21591C199.51 5.85606 199.288 5.59091 198.971 5.42045C198.658 5.25 198.227 5.16477 197.678 5.16477V3.77273ZM203.502 12.0114V13.7159H201.826V12.0114H203.502Z" fill="white"/>
<path d="M156.739 61.892V61.0114C157.529 61.0114 158.081 60.8456 158.393 60.5142C158.711 60.1828 158.869 59.6288 158.869 58.8523V56.5795C158.869 55.9261 158.931 55.3603 159.054 54.8821C159.182 54.4039 159.388 54.0085 159.672 53.696C159.956 53.3835 160.335 53.1515 160.808 53C161.282 52.8485 161.866 52.7727 162.562 52.7727V54.1648C162.013 54.1648 161.58 54.25 161.263 54.4205C160.95 54.5909 160.728 54.8561 160.595 55.2159C160.467 55.571 160.403 56.0256 160.403 56.5795V59.4205C160.403 59.7898 160.354 60.1259 160.254 60.429C160.16 60.732 159.982 60.9924 159.722 61.2102C159.461 61.428 159.089 61.5961 158.607 61.7145C158.128 61.8329 157.506 61.892 156.739 61.892ZM162.562 70.9545C161.866 70.9545 161.282 70.8788 160.808 70.7273C160.335 70.5758 159.956 70.3438 159.672 70.0312C159.388 69.7188 159.182 69.3234 159.054 68.8452C158.931 68.367 158.869 67.8011 158.869 67.1477V64.875C158.869 64.0985 158.711 63.5445 158.393 63.2131C158.081 62.8816 157.529 62.7159 156.739 62.7159V61.8352C157.506 61.8352 158.128 61.8944 158.607 62.0128C159.089 62.1312 159.461 62.2992 159.722 62.517C159.982 62.7348 160.16 62.9953 160.254 63.2983C160.354 63.6013 160.403 63.9375 160.403 64.3068V67.1477C160.403 67.7017 160.467 68.1563 160.595 68.5114C160.728 68.8665 160.95 69.1293 161.263 69.2997C161.58 69.4749 162.013 69.5625 162.562 69.5625V70.9545ZM156.739 62.7159V61.0114H158.415V62.7159H156.739ZM203.502 61.8352V62.7159C202.711 62.7159 202.157 62.8816 201.84 63.2131C201.527 63.5445 201.371 64.0985 201.371 64.875V67.1477C201.371 67.8011 201.307 68.367 201.179 68.8452C201.056 69.3234 200.853 69.7188 200.569 70.0312C200.284 70.3438 199.906 70.5758 199.432 70.7273C198.959 70.8788 198.374 70.9545 197.678 70.9545V69.5625C198.227 69.5625 198.658 69.4749 198.971 69.2997C199.288 69.1293 199.51 68.8665 199.638 68.5114C199.771 68.1563 199.837 67.7017 199.837 67.1477V64.3068C199.837 63.9375 199.884 63.6013 199.979 63.2983C200.078 62.9953 200.258 62.7348 200.519 62.517C200.779 62.2992 201.149 62.1312 201.627 62.0128C202.11 61.8944 202.735 61.8352 203.502 61.8352ZM197.678 52.7727C198.374 52.7727 198.959 52.8485 199.432 53C199.906 53.1515 200.284 53.3835 200.569 53.696C200.853 54.0085 201.056 54.4039 201.179 54.8821C201.307 55.3603 201.371 55.9261 201.371 56.5795V58.8523C201.371 59.6288 201.527 60.1828 201.84 60.5142C202.157 60.8456 202.711 61.0114 203.502 61.0114V61.892C202.735 61.892 202.11 61.8329 201.627 61.7145C201.149 61.5961 200.779 61.428 200.519 61.2102C200.258 60.9924 200.078 60.732 199.979 60.429C199.884 60.1259 199.837 59.7898 199.837 59.4205V56.5795C199.837 56.0256 199.771 55.571 199.638 55.2159C199.51 54.8561 199.288 54.5909 198.971 54.4205C198.658 54.25 198.227 54.1648 197.678 54.1648V52.7727ZM203.502 61.0114V62.7159H201.826V61.0114H203.502Z" fill="white"/>
<path d="M234.739 12.892V12.0114C235.529 12.0114 236.081 11.8456 236.393 11.5142C236.711 11.1828 236.869 10.6288 236.869 9.85227V7.57955C236.869 6.92614 236.931 6.36032 237.054 5.8821C237.182 5.40388 237.388 5.00852 237.672 4.69602C237.956 4.38352 238.335 4.15152 238.808 4C239.282 3.84848 239.866 3.77273 240.562 3.77273V5.16477C240.013 5.16477 239.58 5.25 239.263 5.42045C238.95 5.59091 238.728 5.85606 238.595 6.21591C238.467 6.57102 238.403 7.02557 238.403 7.57955V10.4205C238.403 10.7898 238.354 11.1259 238.254 11.429C238.16 11.732 237.982 11.9924 237.722 12.2102C237.461 12.428 237.089 12.5961 236.607 12.7145C236.128 12.8329 235.506 12.892 234.739 12.892ZM240.562 21.9545C239.866 21.9545 239.282 21.8788 238.808 21.7273C238.335 21.5758 237.956 21.3438 237.672 21.0312C237.388 20.7188 237.182 20.3234 237.054 19.8452C236.931 19.367 236.869 18.8011 236.869 18.1477V15.875C236.869 15.0985 236.711 14.5445 236.393 14.2131C236.081 13.8816 235.529 13.7159 234.739 13.7159V12.8352C235.506 12.8352 236.128 12.8944 236.607 13.0128C237.089 13.1312 237.461 13.2992 237.722 13.517C237.982 13.7348 238.16 13.9953 238.254 14.2983C238.354 14.6013 238.403 14.9375 238.403 15.3068V18.1477C238.403 18.7017 238.467 19.1563 238.595 19.5114C238.728 19.8665 238.95 20.1293 239.263 20.2997C239.58 20.4749 240.013 20.5625 240.562 20.5625V21.9545ZM234.739 13.7159V12.0114H236.415V13.7159H234.739ZM281.502 12.8352V13.7159C280.711 13.7159 280.157 13.8816 279.84 14.2131C279.527 14.5445 279.371 15.0985 279.371 15.875V18.1477C279.371 18.8011 279.307 19.367 279.179 19.8452C279.056 20.3234 278.853 20.7188 278.569 21.0312C278.284 21.3438 277.906 21.5758 277.432 21.7273C276.959 21.8788 276.374 21.9545 275.678 21.9545V20.5625C276.227 20.5625 276.658 20.4749 276.971 20.2997C277.288 20.1293 277.51 19.8665 277.638 19.5114C277.771 19.1563 277.837 18.7017 277.837 18.1477V15.3068C277.837 14.9375 277.884 14.6013 277.979 14.2983C278.078 13.9953 278.258 13.7348 278.519 13.517C278.779 13.2992 279.149 13.1312 279.627 13.0128C280.11 12.8944 280.735 12.8352 281.502 12.8352ZM275.678 3.77273C276.374 3.77273 276.959 3.84848 277.432 4C277.906 4.15152 278.284 4.38352 278.569 4.69602C278.853 5.00852 279.056 5.40388 279.179 5.8821C279.307 6.36032 279.371 6.92614 279.371 7.57955V9.85227C279.371 10.6288 279.527 11.1828 279.84 11.5142C280.157 11.8456 280.711 12.0114 281.502 12.0114V12.892C280.735 12.892 280.11 12.8329 279.627 12.7145C279.149 12.5961 278.779 12.428 278.519 12.2102C278.258 11.9924 278.078 11.732 277.979 11.429C277.884 11.1259 277.837 10.7898 277.837 10.4205V7.57955C277.837 7.02557 277.771 6.57102 277.638 6.21591C277.51 5.85606 277.288 5.59091 276.971 5.42045C276.658 5.25 276.227 5.16477 275.678 5.16477V3.77273ZM281.502 12.0114V13.7159H279.826V12.0114H281.502Z" fill="white"/>
<path d="M234.739 61.892V61.0114C235.529 61.0114 236.081 60.8456 236.393 60.5142C236.711 60.1828 236.869 59.6288 236.869 58.8523V56.5795C236.869 55.9261 236.931 55.3603 237.054 54.8821C237.182 54.4039 237.388 54.0085 237.672 53.696C237.956 53.3835 238.335 53.1515 238.808 53C239.282 52.8485 239.866 52.7727 240.562 52.7727V54.1648C240.013 54.1648 239.58 54.25 239.263 54.4205C238.95 54.5909 238.728 54.8561 238.595 55.2159C238.467 55.571 238.403 56.0256 238.403 56.5795V59.4205C238.403 59.7898 238.354 60.1259 238.254 60.429C238.16 60.732 237.982 60.9924 237.722 61.2102C237.461 61.428 237.089 61.5961 236.607 61.7145C236.128 61.8329 235.506 61.892 234.739 61.892ZM240.562 70.9545C239.866 70.9545 239.282 70.8788 238.808 70.7273C238.335 70.5758 237.956 70.3438 237.672 70.0312C237.388 69.7188 237.182 69.3234 237.054 68.8452C236.931 68.367 236.869 67.8011 236.869 67.1477V64.875C236.869 64.0985 236.711 63.5445 236.393 63.2131C236.081 62.8816 235.529 62.7159 234.739 62.7159V61.8352C235.506 61.8352 236.128 61.8944 236.607 62.0128C237.089 62.1312 237.461 62.2992 237.722 62.517C237.982 62.7348 238.16 62.9953 238.254 63.2983C238.354 63.6013 238.403 63.9375 238.403 64.3068V67.1477C238.403 67.7017 238.467 68.1563 238.595 68.5114C238.728 68.8665 238.95 69.1293 239.263 69.2997C239.58 69.4749 240.013 69.5625 240.562 69.5625V70.9545ZM234.739 62.7159V61.0114H236.415V62.7159H234.739ZM281.502 61.8352V62.7159C280.711 62.7159 280.157 62.8816 279.84 63.2131C279.527 63.5445 279.371 64.0985 279.371 64.875V67.1477C279.371 67.8011 279.307 68.367 279.179 68.8452C279.056 69.3234 278.853 69.7188 278.569 70.0312C278.284 70.3438 277.906 70.5758 277.432 70.7273C276.959 70.8788 276.374 70.9545 275.678 70.9545V69.5625C276.227 69.5625 276.658 69.4749 276.971 69.2997C277.288 69.1293 277.51 68.8665 277.638 68.5114C277.771 68.1563 277.837 67.7017 277.837 67.1477V64.3068C277.837 63.9375 277.884 63.6013 277.979 63.2983C278.078 62.9953 278.258 62.7348 278.519 62.517C278.779 62.2992 279.149 62.1312 279.627 62.0128C280.11 61.8944 280.735 61.8352 281.502 61.8352ZM275.678 52.7727C276.374 52.7727 276.959 52.8485 277.432 53C277.906 53.1515 278.284 53.3835 278.569 53.696C278.853 54.0085 279.056 54.4039 279.179 54.8821C279.307 55.3603 279.371 55.9261 279.371 56.5795V58.8523C279.371 59.6288 279.527 60.1828 279.84 60.5142C280.157 60.8456 280.711 61.0114 281.502 61.0114V61.892C280.735 61.892 280.11 61.8329 279.627 61.7145C279.149 61.5961 278.779 61.428 278.519 61.2102C278.258 60.9924 278.078 60.732 277.979 60.429C277.884 60.1259 277.837 59.7898 277.837 59.4205V56.5795C277.837 56.0256 277.771 55.571 277.638 55.2159C277.51 54.8561 277.288 54.5909 276.971 54.4205C276.658 54.25 276.227 54.1648 275.678 54.1648V52.7727ZM281.502 61.0114V62.7159H279.826V61.0114H281.502Z" fill="white"/>
<path d="M312.739 12.892V12.0114C313.529 12.0114 314.081 11.8456 314.393 11.5142C314.711 11.1828 314.869 10.6288 314.869 9.85227V7.57955C314.869 6.92614 314.931 6.36032 315.054 5.8821C315.182 5.40388 315.388 5.00852 315.672 4.69602C315.956 4.38352 316.335 4.15152 316.808 4C317.282 3.84848 317.866 3.77273 318.562 3.77273V5.16477C318.013 5.16477 317.58 5.25 317.263 5.42045C316.95 5.59091 316.728 5.85606 316.595 6.21591C316.467 6.57102 316.403 7.02557 316.403 7.57955V10.4205C316.403 10.7898 316.354 11.1259 316.254 11.429C316.16 11.732 315.982 11.9924 315.722 12.2102C315.461 12.428 315.089 12.5961 314.607 12.7145C314.128 12.8329 313.506 12.892 312.739 12.892ZM318.562 21.9545C317.866 21.9545 317.282 21.8788 316.808 21.7273C316.335 21.5758 315.956 21.3438 315.672 21.0312C315.388 20.7188 315.182 20.3234 315.054 19.8452C314.931 19.367 314.869 18.8011 314.869 18.1477V15.875C314.869 15.0985 314.711 14.5445 314.393 14.2131C314.081 13.8816 313.529 13.7159 312.739 13.7159V12.8352C313.506 12.8352 314.128 12.8944 314.607 13.0128C315.089 13.1312 315.461 13.2992 315.722 13.517C315.982 13.7348 316.16 13.9953 316.254 14.2983C316.354 14.6013 316.403 14.9375 316.403 15.3068V18.1477C316.403 18.7017 316.467 19.1563 316.595 19.5114C316.728 19.8665 316.95 20.1293 317.263 20.2997C317.58 20.4749 318.013 20.5625 318.562 20.5625V21.9545ZM312.739 13.7159V12.0114H314.415V13.7159H312.739ZM359.502 12.8352V13.7159C358.711 13.7159 358.157 13.8816 357.84 14.2131C357.527 14.5445 357.371 15.0985 357.371 15.875V18.1477C357.371 18.8011 357.307 19.367 357.179 19.8452C357.056 20.3234 356.853 20.7188 356.569 21.0312C356.284 21.3438 355.906 21.5758 355.432 21.7273C354.959 21.8788 354.374 21.9545 353.678 21.9545V20.5625C354.227 20.5625 354.658 20.4749 354.971 20.2997C355.288 20.1293 355.51 19.8665 355.638 19.5114C355.771 19.1563 355.837 18.7017 355.837 18.1477V15.3068C355.837 14.9375 355.884 14.6013 355.979 14.2983C356.078 13.9953 356.258 13.7348 356.519 13.517C356.779 13.2992 357.149 13.1312 357.627 13.0128C358.11 12.8944 358.735 12.8352 359.502 12.8352ZM353.678 3.77273C354.374 3.77273 354.959 3.84848 355.432 4C355.906 4.15152 356.284 4.38352 356.569 4.69602C356.853 5.00852 357.056 5.40388 357.179 5.8821C357.307 6.36032 357.371 6.92614 357.371 7.57955V9.85227C357.371 10.6288 357.527 11.1828 357.84 11.5142C358.157 11.8456 358.711 12.0114 359.502 12.0114V12.892C358.735 12.892 358.11 12.8329 357.627 12.7145C357.149 12.5961 356.779 12.428 356.519 12.2102C356.258 11.9924 356.078 11.732 355.979 11.429C355.884 11.1259 355.837 10.7898 355.837 10.4205V7.57955C355.837 7.02557 355.771 6.57102 355.638 6.21591C355.51 5.85606 355.288 5.59091 354.971 5.42045C354.658 5.25 354.227 5.16477 353.678 5.16477V3.77273ZM359.502 12.0114V13.7159H357.826V12.0114H359.502Z" fill="white"/>
<path d="M312.739 61.892V61.0114C313.529 61.0114 314.081 60.8456 314.393 60.5142C314.711 60.1828 314.869 59.6288 314.869 58.8523V56.5795C314.869 55.9261 314.931 55.3603 315.054 54.8821C315.182 54.4039 315.388 54.0085 315.672 53.696C315.956 53.3835 316.335 53.1515 316.808 53C317.282 52.8485 317.866 52.7727 318.562 52.7727V54.1648C318.013 54.1648 317.58 54.25 317.263 54.4205C316.95 54.5909 316.728 54.8561 316.595 55.2159C316.467 55.571 316.403 56.0256 316.403 56.5795V59.4205C316.403 59.7898 316.354 60.1259 316.254 60.429C316.16 60.732 315.982 60.9924 315.722 61.2102C315.461 61.428 315.089 61.5961 314.607 61.7145C314.128 61.8329 313.506 61.892 312.739 61.892ZM318.562 70.9545C317.866 70.9545 317.282 70.8788 316.808 70.7273C316.335 70.5758 315.956 70.3438 315.672 70.0312C315.388 69.7188 315.182 69.3234 315.054 68.8452C314.931 68.367 314.869 67.8011 314.869 67.1477V64.875C314.869 64.0985 314.711 63.5445 314.393 63.2131C314.081 62.8816 313.529 62.7159 312.739 62.7159V61.8352C313.506 61.8352 314.128 61.8944 314.607 62.0128C315.089 62.1312 315.461 62.2992 315.722 62.517C315.982 62.7348 316.16 62.9953 316.254 63.2983C316.354 63.6013 316.403 63.9375 316.403 64.3068V67.1477C316.403 67.7017 316.467 68.1563 316.595 68.5114C316.728 68.8665 316.95 69.1293 317.263 69.2997C317.58 69.4749 318.013 69.5625 318.562 69.5625V70.9545ZM312.739 62.7159V61.0114H314.415V62.7159H312.739ZM359.502 61.8352V62.7159C358.711 62.7159 358.157 62.8816 357.84 63.2131C357.527 63.5445 357.371 64.0985 357.371 64.875V67.1477C357.371 67.8011 357.307 68.367 357.179 68.8452C357.056 69.3234 356.853 69.7188 356.569 70.0312C356.284 70.3438 355.906 70.5758 355.432 70.7273C354.959 70.8788 354.374 70.9545 353.678 70.9545V69.5625C354.227 69.5625 354.658 69.4749 354.971 69.2997C355.288 69.1293 355.51 68.8665 355.638 68.5114C355.771 68.1563 355.837 67.7017 355.837 67.1477V64.3068C355.837 63.9375 355.884 63.6013 355.979 63.2983C356.078 62.9953 356.258 62.7348 356.519 62.517C356.779 62.2992 357.149 62.1312 357.627 62.0128C358.11 61.8944 358.735 61.8352 359.502 61.8352ZM353.678 52.7727C354.374 52.7727 354.959 52.8485 355.432 53C355.906 53.1515 356.284 53.3835 356.569 53.696C356.853 54.0085 357.056 54.4039 357.179 54.8821C357.307 55.3603 357.371 55.9261 357.371 56.5795V58.8523C357.371 59.6288 357.527 60.1828 357.84 60.5142C358.157 60.8456 358.711 61.0114 359.502 61.0114V61.892C358.735 61.892 358.11 61.8329 357.627 61.7145C357.149 61.5961 356.779 61.428 356.519 61.2102C356.258 60.9924 356.078 60.732 355.979 60.429C355.884 60.1259 355.837 59.7898 355.837 59.4205V56.5795C355.837 56.0256 355.771 55.571 355.638 55.2159C355.51 54.8561 355.288 54.5909 354.971 54.4205C354.658 54.25 354.227 54.1648 353.678 54.1648V52.7727ZM359.502 61.0114V62.7159H357.826V61.0114H359.502Z" fill="white"/>
<path d="M390.739 12.892V12.0114C391.529 12.0114 392.081 11.8456 392.393 11.5142C392.711 11.1828 392.869 10.6288 392.869 9.85227V7.57955C392.869 6.92614 392.931 6.36032 393.054 5.8821C393.182 5.40388 393.388 5.00852 393.672 4.69602C393.956 4.38352 394.335 4.15152 394.808 4C395.282 3.84848 395.866 3.77273 396.562 3.77273V5.16477C396.013 5.16477 395.58 5.25 395.263 5.42045C394.95 5.59091 394.728 5.85606 394.595 6.21591C394.467 6.57102 394.403 7.02557 394.403 7.57955V10.4205C394.403 10.7898 394.354 11.1259 394.254 11.429C394.16 11.732 393.982 11.9924 393.722 12.2102C393.461 12.428 393.089 12.5961 392.607 12.7145C392.128 12.8329 391.506 12.892 390.739 12.892ZM396.562 21.9545C395.866 21.9545 395.282 21.8788 394.808 21.7273C394.335 21.5758 393.956 21.3438 393.672 21.0312C393.388 20.7188 393.182 20.3234 393.054 19.8452C392.931 19.367 392.869 18.8011 392.869 18.1477V15.875C392.869 15.0985 392.711 14.5445 392.393 14.2131C392.081 13.8816 391.529 13.7159 390.739 13.7159V12.8352C391.506 12.8352 392.128 12.8944 392.607 13.0128C393.089 13.1312 393.461 13.2992 393.722 13.517C393.982 13.7348 394.16 13.9953 394.254 14.2983C394.354 14.6013 394.403 14.9375 394.403 15.3068V18.1477C394.403 18.7017 394.467 19.1563 394.595 19.5114C394.728 19.8665 394.95 20.1293 395.263 20.2997C395.58 20.4749 396.013 20.5625 396.562 20.5625V21.9545ZM390.739 13.7159V12.0114H392.415V13.7159H390.739ZM437.502 12.8352V13.7159C436.711 13.7159 436.157 13.8816 435.84 14.2131C435.527 14.5445 435.371 15.0985 435.371 15.875V18.1477C435.371 18.8011 435.307 19.367 435.179 19.8452C435.056 20.3234 434.853 20.7188 434.569 21.0312C434.284 21.3438 433.906 21.5758 433.432 21.7273C432.959 21.8788 432.374 21.9545 431.678 21.9545V20.5625C432.227 20.5625 432.658 20.4749 432.971 20.2997C433.288 20.1293 433.51 19.8665 433.638 19.5114C433.771 19.1563 433.837 18.7017 433.837 18.1477V15.3068C433.837 14.9375 433.884 14.6013 433.979 14.2983C434.078 13.9953 434.258 13.7348 434.519 13.517C434.779 13.2992 435.149 13.1312 435.627 13.0128C436.11 12.8944 436.735 12.8352 437.502 12.8352ZM431.678 3.77273C432.374 3.77273 432.959 3.84848 433.432 4C433.906 4.15152 434.284 4.38352 434.569 4.69602C434.853 5.00852 435.056 5.40388 435.179 5.8821C435.307 6.36032 435.371 6.92614 435.371 7.57955V9.85227C435.371 10.6288 435.527 11.1828 435.84 11.5142C436.157 11.8456 436.711 12.0114 437.502 12.0114V12.892C436.735 12.892 436.11 12.8329 435.627 12.7145C435.149 12.5961 434.779 12.428 434.519 12.2102C434.258 11.9924 434.078 11.732 433.979 11.429C433.884 11.1259 433.837 10.7898 433.837 10.4205V7.57955C433.837 7.02557 433.771 6.57102 433.638 6.21591C433.51 5.85606 433.288 5.59091 432.971 5.42045C432.658 5.25 432.227 5.16477 431.678 5.16477V3.77273ZM437.502 12.0114V13.7159H435.826V12.0114H437.502Z" fill="white"/>
<path d="M390.739 61.892V61.0114C391.529 61.0114 392.081 60.8456 392.393 60.5142C392.711 60.1828 392.869 59.6288 392.869 58.8523V56.5795C392.869 55.9261 392.931 55.3603 393.054 54.8821C393.182 54.4039 393.388 54.0085 393.672 53.696C393.956 53.3835 394.335 53.1515 394.808 53C395.282 52.8485 395.866 52.7727 396.562 52.7727V54.1648C396.013 54.1648 395.58 54.25 395.263 54.4205C394.95 54.5909 394.728 54.8561 394.595 55.2159C394.467 55.571 394.403 56.0256 394.403 56.5795V59.4205C394.403 59.7898 394.354 60.1259 394.254 60.429C394.16 60.732 393.982 60.9924 393.722 61.2102C393.461 61.428 393.089 61.5961 392.607 61.7145C392.128 61.8329 391.506 61.892 390.739 61.892ZM396.562 70.9545C395.866 70.9545 395.282 70.8788 394.808 70.7273C394.335 70.5758 393.956 70.3438 393.672 70.0312C393.388 69.7188 393.182 69.3234 393.054 68.8452C392.931 68.367 392.869 67.8011 392.869 67.1477V64.875C392.869 64.0985 392.711 63.5445 392.393 63.2131C392.081 62.8816 391.529 62.7159 390.739 62.7159V61.8352C391.506 61.8352 392.128 61.8944 392.607 62.0128C393.089 62.1312 393.461 62.2992 393.722 62.517C393.982 62.7348 394.16 62.9953 394.254 63.2983C394.354 63.6013 394.403 63.9375 394.403 64.3068V67.1477C394.403 67.7017 394.467 68.1563 394.595 68.5114C394.728 68.8665 394.95 69.1293 395.263 69.2997C395.58 69.4749 396.013 69.5625 396.562 69.5625V70.9545ZM390.739 62.7159V61.0114H392.415V62.7159H390.739ZM437.502 61.8352V62.7159C436.711 62.7159 436.157 62.8816 435.84 63.2131C435.527 63.5445 435.371 64.0985 435.371 64.875V67.1477C435.371 67.8011 435.307 68.367 435.179 68.8452C435.056 69.3234 434.853 69.7188 434.569 70.0312C434.284 70.3438 433.906 70.5758 433.432 70.7273C432.959 70.8788 432.374 70.9545 431.678 70.9545V69.5625C432.227 69.5625 432.658 69.4749 432.971 69.2997C433.288 69.1293 433.51 68.8665 433.638 68.5114C433.771 68.1563 433.837 67.7017 433.837 67.1477V64.3068C433.837 63.9375 433.884 63.6013 433.979 63.2983C434.078 62.9953 434.258 62.7348 434.519 62.517C434.779 62.2992 435.149 62.1312 435.627 62.0128C436.11 61.8944 436.735 61.8352 437.502 61.8352ZM431.678 52.7727C432.374 52.7727 432.959 52.8485 433.432 53C433.906 53.1515 434.284 53.3835 434.569 53.696C434.853 54.0085 435.056 54.4039 435.179 54.8821C435.307 55.3603 435.371 55.9261 435.371 56.5795V58.8523C435.371 59.6288 435.527 60.1828 435.84 60.5142C436.157 60.8456 436.711 61.0114 437.502 61.0114V61.892C436.735 61.892 436.11 61.8329 435.627 61.7145C435.149 61.5961 434.779 61.428 434.519 61.2102C434.258 60.9924 434.078 60.732 433.979 60.429C433.884 60.1259 433.837 59.7898 433.837 59.4205V56.5795C433.837 56.0256 433.771 55.571 433.638 55.2159C433.51 54.8561 433.288 54.5909 432.971 54.4205C432.658 54.25 432.227 54.1648 431.678 54.1648V52.7727ZM437.502 61.0114V62.7159H435.826V61.0114H437.502Z" fill="white"/>
<path d="M468.739 12.892V12.0114C469.529 12.0114 470.081 11.8456 470.393 11.5142C470.711 11.1828 470.869 10.6288 470.869 9.85227V7.57955C470.869 6.92614 470.931 6.36032 471.054 5.8821C471.182 5.40388 471.388 5.00852 471.672 4.69602C471.956 4.38352 472.335 4.15152 472.808 4C473.282 3.84848 473.866 3.77273 474.562 3.77273V5.16477C474.013 5.16477 473.58 5.25 473.263 5.42045C472.95 5.59091 472.728 5.85606 472.595 6.21591C472.467 6.57102 472.403 7.02557 472.403 7.57955V10.4205C472.403 10.7898 472.354 11.1259 472.254 11.429C472.16 11.732 471.982 11.9924 471.722 12.2102C471.461 12.428 471.089 12.5961 470.607 12.7145C470.128 12.8329 469.506 12.892 468.739 12.892ZM474.562 21.9545C473.866 21.9545 473.282 21.8788 472.808 21.7273C472.335 21.5758 471.956 21.3438 471.672 21.0312C471.388 20.7188 471.182 20.3234 471.054 19.8452C470.931 19.367 470.869 18.8011 470.869 18.1477V15.875C470.869 15.0985 470.711 14.5445 470.393 14.2131C470.081 13.8816 469.529 13.7159 468.739 13.7159V12.8352C469.506 12.8352 470.128 12.8944 470.607 13.0128C471.089 13.1312 471.461 13.2992 471.722 13.517C471.982 13.7348 472.16 13.9953 472.254 14.2983C472.354 14.6013 472.403 14.9375 472.403 15.3068V18.1477C472.403 18.7017 472.467 19.1563 472.595 19.5114C472.728 19.8665 472.95 20.1293 473.263 20.2997C473.58 20.4749 474.013 20.5625 474.562 20.5625V21.9545ZM468.739 13.7159V12.0114H470.415V13.7159H468.739ZM515.502 12.8352V13.7159C514.711 13.7159 514.157 13.8816 513.84 14.2131C513.527 14.5445 513.371 15.0985 513.371 15.875V18.1477C513.371 18.8011 513.307 19.367 513.179 19.8452C513.056 20.3234 512.853 20.7188 512.569 21.0312C512.284 21.3438 511.906 21.5758 511.432 21.7273C510.959 21.8788 510.374 21.9545 509.678 21.9545V20.5625C510.227 20.5625 510.658 20.4749 510.971 20.2997C511.288 20.1293 511.51 19.8665 511.638 19.5114C511.771 19.1563 511.837 18.7017 511.837 18.1477V15.3068C511.837 14.9375 511.884 14.6013 511.979 14.2983C512.078 13.9953 512.258 13.7348 512.519 13.517C512.779 13.2992 513.149 13.1312 513.627 13.0128C514.11 12.8944 514.735 12.8352 515.502 12.8352ZM509.678 3.77273C510.374 3.77273 510.959 3.84848 511.432 4C511.906 4.15152 512.284 4.38352 512.569 4.69602C512.853 5.00852 513.056 5.40388 513.179 5.8821C513.307 6.36032 513.371 6.92614 513.371 7.57955V9.85227C513.371 10.6288 513.527 11.1828 513.84 11.5142C514.157 11.8456 514.711 12.0114 515.502 12.0114V12.892C514.735 12.892 514.11 12.8329 513.627 12.7145C513.149 12.5961 512.779 12.428 512.519 12.2102C512.258 11.9924 512.078 11.732 511.979 11.429C511.884 11.1259 511.837 10.7898 511.837 10.4205V7.57955C511.837 7.02557 511.771 6.57102 511.638 6.21591C511.51 5.85606 511.288 5.59091 510.971 5.42045C510.658 5.25 510.227 5.16477 509.678 5.16477V3.77273ZM515.502 12.0114V13.7159H513.826V12.0114H515.502Z" fill="white"/>
<path d="M468.739 61.892V61.0114C469.529 61.0114 470.081 60.8456 470.393 60.5142C470.711 60.1828 470.869 59.6288 470.869 58.8523V56.5795C470.869 55.9261 470.931 55.3603 471.054 54.8821C471.182 54.4039 471.388 54.0085 471.672 53.696C471.956 53.3835 472.335 53.1515 472.808 53C473.282 52.8485 473.866 52.7727 474.562 52.7727V54.1648C474.013 54.1648 473.58 54.25 473.263 54.4205C472.95 54.5909 472.728 54.8561 472.595 55.2159C472.467 55.571 472.403 56.0256 472.403 56.5795V59.4205C472.403 59.7898 472.354 60.1259 472.254 60.429C472.16 60.732 471.982 60.9924 471.722 61.2102C471.461 61.428 471.089 61.5961 470.607 61.7145C470.128 61.8329 469.506 61.892 468.739 61.892ZM474.562 70.9545C473.866 70.9545 473.282 70.8788 472.808 70.7273C472.335 70.5758 471.956 70.3438 471.672 70.0312C471.388 69.7188 471.182 69.3234 471.054 68.8452C470.931 68.367 470.869 67.8011 470.869 67.1477V64.875C470.869 64.0985 470.711 63.5445 470.393 63.2131C470.081 62.8816 469.529 62.7159 468.739 62.7159V61.8352C469.506 61.8352 470.128 61.8944 470.607 62.0128C471.089 62.1312 471.461 62.2992 471.722 62.517C471.982 62.7348 472.16 62.9953 472.254 63.2983C472.354 63.6013 472.403 63.9375 472.403 64.3068V67.1477C472.403 67.7017 472.467 68.1563 472.595 68.5114C472.728 68.8665 472.95 69.1293 473.263 69.2997C473.58 69.4749 474.013 69.5625 474.562 69.5625V70.9545ZM468.739 62.7159V61.0114H470.415V62.7159H468.739ZM515.502 61.8352V62.7159C514.711 62.7159 514.157 62.8816 513.84 63.2131C513.527 63.5445 513.371 64.0985 513.371 64.875V67.1477C513.371 67.8011 513.307 68.367 513.179 68.8452C513.056 69.3234 512.853 69.7188 512.569 70.0312C512.284 70.3438 511.906 70.5758 511.432 70.7273C510.959 70.8788 510.374 70.9545 509.678 70.9545V69.5625C510.227 69.5625 510.658 69.4749 510.971 69.2997C511.288 69.1293 511.51 68.8665 511.638 68.5114C511.771 68.1563 511.837 67.7017 511.837 67.1477V64.3068C511.837 63.9375 511.884 63.6013 511.979 63.2983C512.078 62.9953 512.258 62.7348 512.519 62.517C512.779 62.2992 513.149 62.1312 513.627 62.0128C514.11 61.8944 514.735 61.8352 515.502 61.8352ZM509.678 52.7727C510.374 52.7727 510.959 52.8485 511.432 53C511.906 53.1515 512.284 53.3835 512.569 53.696C512.853 54.0085 513.056 54.4039 513.179 54.8821C513.307 55.3603 513.371 55.9261 513.371 56.5795V58.8523C513.371 59.6288 513.527 60.1828 513.84 60.5142C514.157 60.8456 514.711 61.0114 515.502 61.0114V61.892C514.735 61.892 514.11 61.8329 513.627 61.7145C513.149 61.5961 512.779 61.428 512.519 61.2102C512.258 60.9924 512.078 60.732 511.979 60.429C511.884 60.1259 511.837 59.7898 511.837 59.4205V56.5795C511.837 56.0256 511.771 55.571 511.638 55.2159C511.51 54.8561 511.288 54.5909 510.971 54.4205C510.658 54.25 510.227 54.1648 509.678 54.1648V52.7727ZM515.502 61.0114V62.7159H513.826V61.0114H515.502Z" fill="white"/>
<path d="M546.739 12.892V12.0114C547.529 12.0114 548.081 11.8456 548.393 11.5142C548.711 11.1828 548.869 10.6288 548.869 9.85227V7.57955C548.869 6.92614 548.931 6.36032 549.054 5.8821C549.182 5.40388 549.388 5.00852 549.672 4.69602C549.956 4.38352 550.335 4.15152 550.808 4C551.282 3.84848 551.866 3.77273 552.562 3.77273V5.16477C552.013 5.16477 551.58 5.25 551.263 5.42045C550.95 5.59091 550.728 5.85606 550.595 6.21591C550.467 6.57102 550.403 7.02557 550.403 7.57955V10.4205C550.403 10.7898 550.354 11.1259 550.254 11.429C550.16 11.732 549.982 11.9924 549.722 12.2102C549.461 12.428 549.089 12.5961 548.607 12.7145C548.128 12.8329 547.506 12.892 546.739 12.892ZM552.562 21.9545C551.866 21.9545 551.282 21.8788 550.808 21.7273C550.335 21.5758 549.956 21.3438 549.672 21.0312C549.388 20.7188 549.182 20.3234 549.054 19.8452C548.931 19.367 548.869 18.8011 548.869 18.1477V15.875C548.869 15.0985 548.711 14.5445 548.393 14.2131C548.081 13.8816 547.529 13.7159 546.739 13.7159V12.8352C547.506 12.8352 548.128 12.8944 548.607 13.0128C549.089 13.1312 549.461 13.2992 549.722 13.517C549.982 13.7348 550.16 13.9953 550.254 14.2983C550.354 14.6013 550.403 14.9375 550.403 15.3068V18.1477C550.403 18.7017 550.467 19.1563 550.595 19.5114C550.728 19.8665 550.95 20.1293 551.263 20.2997C551.58 20.4749 552.013 20.5625 552.562 20.5625V21.9545ZM546.739 13.7159V12.0114H548.415V13.7159H546.739ZM593.502 12.8352V13.7159C592.711 13.7159 592.157 13.8816 591.84 14.2131C591.527 14.5445 591.371 15.0985 591.371 15.875V18.1477C591.371 18.8011 591.307 19.367 591.179 19.8452C591.056 20.3234 590.853 20.7188 590.569 21.0312C590.284 21.3438 589.906 21.5758 589.432 21.7273C588.959 21.8788 588.374 21.9545 587.678 21.9545V20.5625C588.227 20.5625 588.658 20.4749 588.971 20.2997C589.288 20.1293 589.51 19.8665 589.638 19.5114C589.771 19.1563 589.837 18.7017 589.837 18.1477V15.3068C589.837 14.9375 589.884 14.6013 589.979 14.2983C590.078 13.9953 590.258 13.7348 590.519 13.517C590.779 13.2992 591.149 13.1312 591.627 13.0128C592.11 12.8944 592.735 12.8352 593.502 12.8352ZM587.678 3.77273C588.374 3.77273 588.959 3.84848 589.432 4C589.906 4.15152 590.284 4.38352 590.569 4.69602C590.853 5.00852 591.056 5.40388 591.179 5.8821C591.307 6.36032 591.371 6.92614 591.371 7.57955V9.85227C591.371 10.6288 591.527 11.1828 591.84 11.5142C592.157 11.8456 592.711 12.0114 593.502 12.0114V12.892C592.735 12.892 592.11 12.8329 591.627 12.7145C591.149 12.5961 590.779 12.428 590.519 12.2102C590.258 11.9924 590.078 11.732 589.979 11.429C589.884 11.1259 589.837 10.7898 589.837 10.4205V7.57955C589.837 7.02557 589.771 6.57102 589.638 6.21591C589.51 5.85606 589.288 5.59091 588.971 5.42045C588.658 5.25 588.227 5.16477 587.678 5.16477V3.77273ZM593.502 12.0114V13.7159H591.826V12.0114H593.502Z" fill="white"/>
<path d="M546.739 61.892V61.0114C547.529 61.0114 548.081 60.8456 548.393 60.5142C548.711 60.1828 548.869 59.6288 548.869 58.8523V56.5795C548.869 55.9261 548.931 55.3603 549.054 54.8821C549.182 54.4039 549.388 54.0085 549.672 53.696C549.956 53.3835 550.335 53.1515 550.808 53C551.282 52.8485 551.866 52.7727 552.562 52.7727V54.1648C552.013 54.1648 551.58 54.25 551.263 54.4205C550.95 54.5909 550.728 54.8561 550.595 55.2159C550.467 55.571 550.403 56.0256 550.403 56.5795V59.4205C550.403 59.7898 550.354 60.1259 550.254 60.429C550.16 60.732 549.982 60.9924 549.722 61.2102C549.461 61.428 549.089 61.5961 548.607 61.7145C548.128 61.8329 547.506 61.892 546.739 61.892ZM552.562 70.9545C551.866 70.9545 551.282 70.8788 550.808 70.7273C550.335 70.5758 549.956 70.3438 549.672 70.0312C549.388 69.7188 549.182 69.3234 549.054 68.8452C548.931 68.367 548.869 67.8011 548.869 67.1477V64.875C548.869 64.0985 548.711 63.5445 548.393 63.2131C548.081 62.8816 547.529 62.7159 546.739 62.7159V61.8352C547.506 61.8352 548.128 61.8944 548.607 62.0128C549.089 62.1312 549.461 62.2992 549.722 62.517C549.982 62.7348 550.16 62.9953 550.254 63.2983C550.354 63.6013 550.403 63.9375 550.403 64.3068V67.1477C550.403 67.7017 550.467 68.1563 550.595 68.5114C550.728 68.8665 550.95 69.1293 551.263 69.2997C551.58 69.4749 552.013 69.5625 552.562 69.5625V70.9545ZM546.739 62.7159V61.0114H548.415V62.7159H546.739ZM593.502 61.8352V62.7159C592.711 62.7159 592.157 62.8816 591.84 63.2131C591.527 63.5445 591.371 64.0985 591.371 64.875V67.1477C591.371 67.8011 591.307 68.367 591.179 68.8452C591.056 69.3234 590.853 69.7188 590.569 70.0312C590.284 70.3438 589.906 70.5758 589.432 70.7273C588.959 70.8788 588.374 70.9545 587.678 70.9545V69.5625C588.227 69.5625 588.658 69.4749 588.971 69.2997C589.288 69.1293 589.51 68.8665 589.638 68.5114C589.771 68.1563 589.837 67.7017 589.837 67.1477V64.3068C589.837 63.9375 589.884 63.6013 589.979 63.2983C590.078 62.9953 590.258 62.7348 590.519 62.517C590.779 62.2992 591.149 62.1312 591.627 62.0128C592.11 61.8944 592.735 61.8352 593.502 61.8352ZM587.678 52.7727C588.374 52.7727 588.959 52.8485 589.432 53C589.906 53.1515 590.284 53.3835 590.569 53.696C590.853 54.0085 591.056 54.4039 591.179 54.8821C591.307 55.3603 591.371 55.9261 591.371 56.5795V58.8523C591.371 59.6288 591.527 60.1828 591.84 60.5142C592.157 60.8456 592.711 61.0114 593.502 61.0114V61.892C592.735 61.892 592.11 61.8329 591.627 61.7145C591.149 61.5961 590.779 61.428 590.519 61.2102C590.258 60.9924 590.078 60.732 589.979 60.429C589.884 60.1259 589.837 59.7898 589.837 59.4205V56.5795C589.837 56.0256 589.771 55.571 589.638 55.2159C589.51 54.8561 589.288 54.5909 588.971 54.4205C588.658 54.25 588.227 54.1648 587.678 54.1648V52.7727ZM593.502 61.0114V62.7159H591.826V61.0114H593.502Z" fill="white"/>
</svg>
