<svg width="188" height="112" viewBox="0 0 188 112" fill="none" xmlns="http://www.w3.org/2000/svg">
<path fill-rule="evenodd" clip-rule="evenodd" d="M66.2653 66.6667C62.7811 66.6373 59.5001 65.8519 56.4222 64.3106C53.3447 62.7393 50.8706 60.5032 49 57.6023L52.8922 53.0697C54.6421 55.608 56.6636 57.5419 58.9567 58.8715C61.2497 60.201 63.7841 60.8658 66.5599 60.8658C67.4236 60.8658 68.2398 60.8094 69.0084 60.6966L66.2653 66.6667ZM78.3269 40.4155V8.46853H55.155V2.66675H84.9345V26.0345L78.3269 40.4155Z" fill="#F33838"/>
<path d="M72.4629 66.1237L101.428 2.66675H108.035L137 66.1237H129.94L103.329 6.56482H106.044L79.4326 66.1237H72.4629ZM83.8678 49.1716L85.8591 43.7325H122.699L124.69 49.1716H83.8678Z" fill="white"/>
<path d="M0.34163 84.7992V83.4009C1.39188 83.4009 2.12519 83.1865 2.54156 82.7577C2.95793 82.3227 3.16612 81.605 3.16612 80.6044V77.9291C3.16612 76.9783 3.27176 76.1797 3.48305 75.5334C3.70056 74.8809 4.02993 74.3589 4.47116 73.9674C4.91239 73.5758 5.47169 73.2931 6.14907 73.1191C6.82645 72.9451 7.62501 72.8581 8.54476 72.8581V75.0673C7.82388 75.0673 7.26146 75.173 6.85752 75.3843C6.45358 75.5955 6.17082 75.9249 6.00924 76.3724C5.85388 76.8136 5.7762 77.3791 5.7762 78.0689V81.462C5.7762 81.9405 5.70473 82.3849 5.5618 82.795C5.41887 83.199 5.15475 83.5501 4.76945 83.8484C4.38416 84.1467 3.83417 84.3797 3.11951 84.5475C2.40484 84.7153 1.47888 84.7992 0.34163 84.7992ZM8.54476 96.6378C7.62501 96.6378 6.82645 96.5508 6.14907 96.3768C5.47169 96.2028 4.91239 95.92 4.47116 95.5285C4.02993 95.137 3.70056 94.615 3.48305 93.9625C3.27176 93.3162 3.16612 92.5176 3.16612 91.5668V88.8821C3.16612 87.8878 2.95793 87.1731 2.54156 86.7381C2.12519 86.3031 1.39188 86.0856 0.34163 86.0856V84.6967C1.47888 84.6967 2.40484 84.7806 3.11951 84.9484C3.83417 85.1099 4.38416 85.343 4.76945 85.6475C5.15475 85.9458 5.41887 86.3 5.5618 86.7102C5.70473 87.1141 5.7762 87.5553 5.7762 88.0338V91.427C5.7762 92.1106 5.85388 92.673 6.00924 93.1142C6.17082 93.5616 6.45358 93.891 6.85752 94.1023C7.26146 94.3198 7.82388 94.4286 8.54476 94.4286V96.6378ZM0.34163 86.0856V83.4009H2.92375V86.0856H0.34163ZM15.0194 78.3486H17.8066V93.5989C17.8066 94.556 17.6326 95.3638 17.2846 96.0226C16.9428 96.6813 16.4332 97.1816 15.7559 97.5234C15.0847 97.8652 14.2551 98.0361 13.267 98.0361C13.1675 98.0361 13.0743 98.0361 12.9873 98.0361C12.8941 98.0361 12.7978 98.033 12.6983 98.0267V95.6311C12.7853 95.6311 12.863 95.6311 12.9314 95.6311C12.9935 95.6311 13.065 95.6311 13.1458 95.6311C13.8045 95.6311 14.2799 95.4539 14.572 95.0997C14.8703 94.7517 15.0194 94.2452 15.0194 93.5803V78.3486ZM16.3991 76.1393C15.9143 76.1393 15.498 75.9777 15.1499 75.6546C14.8082 75.3252 14.6373 74.9337 14.6373 74.48C14.6373 74.0202 14.8082 73.6287 15.1499 73.3055C15.498 72.9761 15.9143 72.8115 16.3991 72.8115C16.8838 72.8115 17.2971 72.9761 17.6389 73.3055C17.9869 73.6287 18.1609 74.0202 18.1609 74.48C18.1609 74.9337 17.9869 75.3252 17.6389 75.6546C17.2971 75.9777 16.8838 76.1393 16.3991 76.1393ZM24.1481 92.9837C23.2408 92.9837 22.4205 92.8159 21.6872 92.4803C20.9539 92.1385 20.3728 91.6445 19.944 90.9982C19.5214 90.3519 19.3101 89.5595 19.3101 88.6211C19.3101 87.8132 19.4655 87.1483 19.7762 86.6263C20.087 86.1042 20.5064 85.691 21.0347 85.3865C21.5629 85.082 22.1533 84.852 22.8058 84.6967C23.4583 84.5413 24.1233 84.4232 24.8006 84.3424C25.6582 84.243 26.3543 84.1622 26.8887 84.1001C27.4232 84.0317 27.8116 83.923 28.0539 83.7738C28.2963 83.6247 28.4175 83.3823 28.4175 83.0467V82.9815C28.4175 82.1674 28.1875 81.5366 27.7277 81.0892C27.274 80.6417 26.5966 80.418 25.6955 80.418C24.7571 80.418 24.0176 80.6262 23.477 81.0425C22.9425 81.4527 22.5728 81.9095 22.3677 82.4128L19.7483 81.8163C20.059 80.9462 20.5126 80.244 21.1092 79.7095C21.712 79.1689 22.405 78.7774 23.188 78.535C23.971 78.2864 24.7944 78.1621 25.6582 78.1621C26.23 78.1621 26.8359 78.2305 27.476 78.3672C28.1223 78.4977 28.7251 78.7401 29.2844 79.0943C29.8499 79.4485 30.3129 79.955 30.6733 80.6137C31.0338 81.2663 31.214 82.1145 31.214 83.1586V92.6667H28.4921V90.7092H28.3802C28.2 91.0696 27.9296 91.4239 27.5692 91.7719C27.2088 92.1199 26.7458 92.4088 26.1803 92.6388C25.6147 92.8687 24.9374 92.9837 24.1481 92.9837ZM24.754 90.7465C25.5246 90.7465 26.1834 90.5942 26.7302 90.2897C27.2833 89.9852 27.7028 89.5875 27.9887 89.0965C28.2808 88.5994 28.4268 88.068 28.4268 87.5025V85.6568C28.3274 85.7562 28.1347 85.8495 27.8489 85.9365C27.5692 86.0172 27.2492 86.0887 26.8887 86.1509C26.5283 86.2068 26.1772 86.2596 25.8354 86.3093C25.4936 86.3528 25.2077 86.3901 24.9778 86.4212C24.4371 86.4895 23.943 86.6045 23.4956 86.7661C23.0544 86.9277 22.7001 87.1607 22.4329 87.4652C22.1719 87.7635 22.0414 88.1612 22.0414 88.6584C22.0414 89.3482 22.2962 89.8702 22.8058 90.2245C23.3154 90.5725 23.9648 90.7465 24.754 90.7465ZM45.0874 78.3486L39.8952 92.6667H36.9123L31.7108 78.3486H34.703L38.3292 89.3669H38.4783L42.0952 78.3486H45.0874ZM49.8885 92.9837C48.9812 92.9837 48.1609 92.8159 47.4276 92.4803C46.6943 92.1385 46.1132 91.6445 45.6844 90.9982C45.2618 90.3519 45.0505 89.5595 45.0505 88.6211C45.0505 87.8132 45.2059 87.1483 45.5166 86.6263C45.8273 86.1042 46.2468 85.691 46.775 85.3865C47.3033 85.082 47.8937 84.852 48.5462 84.6967C49.1987 84.5413 49.8636 84.4232 50.541 84.3424C51.3986 84.243 52.0946 84.1622 52.6291 84.1001C53.1635 84.0317 53.5519 83.923 53.7943 83.7738C54.0367 83.6247 54.1579 83.3823 54.1579 83.0467V82.9815C54.1579 82.1674 53.9279 81.5366 53.4681 81.0892C53.0144 80.6417 52.337 80.418 51.4359 80.418C50.4975 80.418 49.758 80.6262 49.2173 81.0425C48.6829 81.4527 48.3131 81.9095 48.1081 82.4128L45.4886 81.8163C45.7994 80.9462 46.253 80.244 46.8496 79.7095C47.4524 79.1689 48.1453 78.7774 48.9284 78.535C49.7114 78.2864 50.5348 78.1621 51.3986 78.1621C51.9704 78.1621 52.5763 78.2305 53.2164 78.3672C53.8627 78.4977 54.4655 78.7401 55.0248 79.0943C55.5903 79.4485 56.0533 79.955 56.4137 80.6137C56.7742 81.2663 56.9544 82.1145 56.9544 83.1586V92.6667H54.2324V90.7092H54.1206C53.9404 91.0696 53.67 91.4239 53.3096 91.7719C52.9491 92.1199 52.4862 92.4088 51.9206 92.6388C51.3551 92.8687 50.6777 92.9837 49.8885 92.9837ZM50.4944 90.7465C51.265 90.7465 51.9238 90.5942 52.4706 90.2897C53.0237 89.9852 53.4432 89.5875 53.7291 89.0965C54.0211 88.5994 54.1672 88.068 54.1672 87.5025V85.6568C54.0677 85.7562 53.8751 85.8495 53.5892 85.9365C53.3096 86.0172 52.9895 86.0887 52.6291 86.1509C52.2687 86.2068 51.9175 86.2596 51.5757 86.3093C51.2339 86.3528 50.9481 86.3901 50.7181 86.4212C50.1775 86.4895 49.6834 86.6045 49.236 86.7661C48.7948 86.9277 48.4405 87.1607 48.1733 87.4652C47.9123 87.7635 47.7818 88.1612 47.7818 88.6584C47.7818 89.3482 48.0366 89.8702 48.5462 90.2245C49.0558 90.5725 49.7052 90.7465 50.4944 90.7465ZM67.5279 83.3916V85.806H59.0638V83.3916H67.5279ZM73.8345 92.9837C72.9271 92.9837 72.1068 92.8159 71.3735 92.4803C70.6402 92.1385 70.0591 91.6445 69.6303 90.9982C69.2078 90.3519 68.9965 89.5595 68.9965 88.6211C68.9965 87.8132 69.1518 87.1483 69.4626 86.6263C69.7733 86.1042 70.1928 85.691 70.721 85.3865C71.2492 85.082 71.8396 84.852 72.4921 84.6967C73.1446 84.5413 73.8096 84.4232 74.487 84.3424C75.3446 84.243 76.0406 84.1622 76.575 84.1001C77.1095 84.0317 77.4979 83.923 77.7403 83.7738C77.9826 83.6247 78.1038 83.3823 78.1038 83.0467V82.9815C78.1038 82.1674 77.8739 81.5366 77.414 81.0892C76.9603 80.6417 76.283 80.418 75.3819 80.418C74.4435 80.418 73.7039 80.6262 73.1633 81.0425C72.6288 81.4527 72.2591 81.9095 72.054 82.4128L69.4346 81.8163C69.7453 80.9462 70.199 80.244 70.7956 79.7095C71.3984 79.1689 72.0913 78.7774 72.8743 78.535C73.6573 78.2864 74.4808 78.1621 75.3446 78.1621C75.9163 78.1621 76.5222 78.2305 77.1623 78.3672C77.8086 78.4977 78.4114 78.7401 78.9707 79.0943C79.5362 79.4485 79.9992 79.955 80.3597 80.6137C80.7201 81.2663 80.9003 82.1145 80.9003 83.1586V92.6667H78.1784V90.7092H78.0665C77.8863 91.0696 77.616 91.4239 77.2555 91.7719C76.8951 92.1199 76.4321 92.4088 75.8666 92.6388C75.3011 92.8687 74.6237 92.9837 73.8345 92.9837ZM74.4404 90.7465C75.211 90.7465 75.8697 90.5942 76.4166 90.2897C76.9697 89.9852 77.3891 89.5875 77.675 89.0965C77.9671 88.5994 78.1131 88.068 78.1131 87.5025V85.6568C78.0137 85.7562 77.821 85.8495 77.5352 85.9365C77.2555 86.0172 76.9355 86.0887 76.575 86.1509C76.2146 86.2068 75.8635 86.2596 75.5217 86.3093C75.1799 86.3528 74.894 86.3901 74.6641 86.4212C74.1234 86.4895 73.6294 86.6045 73.1819 86.7661C72.7407 86.9277 72.3865 87.1607 72.1193 87.4652C71.8582 87.7635 71.7277 88.1612 71.7277 88.6584C71.7277 89.3482 71.9825 89.8702 72.4921 90.2245C73.0017 90.5725 73.6511 90.7465 74.4404 90.7465ZM89.0689 92.9557C87.683 92.9557 86.4899 92.6419 85.4893 92.0142C84.495 91.3803 83.7306 90.5072 83.1962 89.3948C82.6617 88.2824 82.3945 87.0085 82.3945 85.5729C82.3945 84.1187 82.6679 82.8354 83.2148 81.723C83.7617 80.6044 84.5323 79.7313 85.5266 79.1036C86.5209 78.476 87.6924 78.1621 89.0409 78.1621C90.1284 78.1621 91.0979 78.3641 91.9493 78.768C92.8007 79.1658 93.4874 79.7251 94.0094 80.446C94.5376 81.1668 94.8515 82.0089 94.9509 82.9721H92.2383C92.0891 82.301 91.7473 81.723 91.2129 81.2383C90.6846 80.7536 89.9762 80.5112 89.0875 80.5112C88.3107 80.5112 87.6302 80.7163 87.0461 81.1264C86.4681 81.5304 86.0176 82.1083 85.6944 82.8603C85.3712 83.606 85.2097 84.4885 85.2097 85.5077C85.2097 86.5517 85.3681 87.4528 85.6851 88.211C86.002 88.9691 86.4495 89.5564 87.0274 89.9728C87.6116 90.3891 88.2983 90.5973 89.0875 90.5973C89.6157 90.5973 90.0943 90.501 90.5231 90.3083C90.9581 90.1095 91.3216 89.8267 91.6137 89.4601C91.912 89.0934 92.1202 88.6522 92.2383 88.1364H94.9509C94.8515 89.0623 94.55 89.8889 94.0467 90.616C93.5433 91.3431 92.869 91.9148 92.0239 92.3312C91.1849 92.7475 90.1999 92.9557 89.0689 92.9557ZM100.523 92.9837C99.616 92.9837 98.7957 92.8159 98.0624 92.4803C97.3291 92.1385 96.748 91.6445 96.3192 90.9982C95.8966 90.3519 95.6853 89.5595 95.6853 88.6211C95.6853 87.8132 95.8407 87.1483 96.1514 86.6263C96.4621 86.1042 96.8816 85.691 97.4099 85.3865C97.9381 85.082 98.5285 84.852 99.181 84.6967C99.8335 84.5413 100.498 84.4232 101.176 84.3424C102.033 84.243 102.729 84.1622 103.264 84.1001C103.798 84.0317 104.187 83.923 104.429 83.7738C104.671 83.6247 104.793 83.3823 104.793 83.0467V82.9815C104.793 82.1674 104.563 81.5366 104.103 81.0892C103.649 80.6417 102.972 80.418 102.071 80.418C101.132 80.418 100.393 80.6262 99.8522 81.0425C99.3177 81.4527 98.9479 81.9095 98.7429 82.4128L96.1235 81.8163C96.4342 80.9462 96.8878 80.244 97.4844 79.7095C98.0872 79.1689 98.7802 78.7774 99.5632 78.535C100.346 78.2864 101.17 78.1621 102.033 78.1621C102.605 78.1621 103.211 78.2305 103.851 78.3672C104.497 78.4977 105.1 78.7401 105.66 79.0943C106.225 79.4485 106.688 79.955 107.049 80.6137C107.409 81.2663 107.589 82.1145 107.589 83.1586V92.6667H104.867V90.7092H104.755C104.575 91.0696 104.305 91.4239 103.944 91.7719C103.584 92.1199 103.121 92.4088 102.555 92.6388C101.99 92.8687 101.313 92.9837 100.523 92.9837ZM101.129 90.7465C101.9 90.7465 102.559 90.5942 103.105 90.2897C103.659 89.9852 104.078 89.5875 104.364 89.0965C104.656 88.5994 104.802 88.068 104.802 87.5025V85.6568C104.703 85.7562 104.51 85.8495 104.224 85.9365C103.944 86.0172 103.624 86.0887 103.264 86.1509C102.903 86.2068 102.552 86.2596 102.211 86.3093C101.869 86.3528 101.583 86.3901 101.353 86.4212C100.812 86.4895 100.318 86.6045 99.8708 86.7661C99.4296 86.9277 99.0753 87.1607 98.8081 87.4652C98.5471 87.7635 98.4166 88.1612 98.4166 88.6584C98.4166 89.3482 98.6714 89.8702 99.181 90.2245C99.6906 90.5725 100.34 90.7465 101.129 90.7465ZM115.087 92.9464C113.931 92.9464 112.899 92.6512 111.992 92.0608C111.091 91.4642 110.382 90.616 109.866 89.516C109.357 88.4098 109.102 87.083 109.102 85.5356C109.102 83.9882 109.36 82.6645 109.876 81.5646C110.398 80.4646 111.112 79.6225 112.02 79.0384C112.927 78.4542 113.956 78.1621 115.105 78.1621C115.994 78.1621 116.709 78.3113 117.249 78.6096C117.796 78.9017 118.219 79.2435 118.517 79.635C118.821 80.0265 119.058 80.3714 119.225 80.6697H119.393V73.5758H122.18V92.6667H119.458V90.4389H119.225C119.058 90.7434 118.815 91.0914 118.498 91.4829C118.188 91.8744 117.759 92.2162 117.212 92.5083C116.665 92.8004 115.957 92.9464 115.087 92.9464ZM115.702 90.5694C116.503 90.5694 117.181 90.3581 117.734 89.9355C118.293 89.5067 118.716 88.9132 119.002 88.155C119.294 87.3969 119.44 86.5144 119.44 85.5077C119.44 84.5133 119.297 83.6433 119.011 82.8976C118.725 82.1518 118.306 81.5708 117.753 81.1544C117.199 80.738 116.516 80.5299 115.702 80.5299C114.863 80.5299 114.164 80.7474 113.604 81.1824C113.045 81.6174 112.623 82.2109 112.337 82.9628C112.057 83.7148 111.917 84.5631 111.917 85.5077C111.917 86.4647 112.06 87.3254 112.346 88.0898C112.632 88.8542 113.054 89.4601 113.614 89.9075C114.179 90.3487 114.875 90.5694 115.702 90.5694ZM130.754 92.9557C129.344 92.9557 128.129 92.6543 127.11 92.0515C126.097 91.4425 125.314 90.588 124.761 89.488C124.214 88.3819 123.94 87.0861 123.94 85.6009C123.94 84.1343 124.214 82.8416 124.761 81.723C125.314 80.6044 126.084 79.7313 127.072 79.1036C128.067 78.476 129.229 78.1621 130.559 78.1621C131.367 78.1621 132.15 78.2957 132.908 78.563C133.666 78.8302 134.346 79.2497 134.949 79.8214C135.552 80.3931 136.027 81.1358 136.375 82.0493C136.723 82.9566 136.897 84.0597 136.897 85.3585V86.3466H125.516V84.2585H134.166C134.166 83.5252 134.017 82.8758 133.719 82.3103C133.42 81.7386 133.001 81.288 132.46 80.9587C131.926 80.6293 131.298 80.4646 130.577 80.4646C129.794 80.4646 129.111 80.6572 128.527 81.0425C127.949 81.4216 127.501 81.9188 127.184 82.534C126.874 83.143 126.718 83.8049 126.718 84.5196V86.1509C126.718 87.1079 126.886 87.922 127.222 88.5932C127.563 89.2643 128.039 89.777 128.648 90.1312C129.257 90.4792 129.968 90.6533 130.782 90.6533C131.311 90.6533 131.792 90.5787 132.227 90.4295C132.662 90.2742 133.038 90.0442 133.355 89.7397C133.672 89.4352 133.915 89.0592 134.082 88.6118L136.72 89.0872C136.509 89.864 136.13 90.5445 135.583 91.1287C135.042 91.7066 134.362 92.1572 133.542 92.4803C132.728 92.7973 131.798 92.9557 130.754 92.9557ZM138.415 92.6667V78.3486H141.09V80.679H141.267C141.566 79.8898 142.054 79.2745 142.731 78.8333C143.408 78.3859 144.219 78.1621 145.164 78.1621C146.121 78.1621 146.923 78.3859 147.569 78.8333C148.221 79.2807 148.703 79.896 149.014 80.679H149.163C149.505 79.9146 150.048 79.3056 150.794 78.8519C151.54 78.3921 152.429 78.1621 153.46 78.1621C154.759 78.1621 155.819 78.5692 156.639 79.3833C157.465 80.1974 157.879 81.4247 157.879 83.0654V92.6667H155.092V83.3264C155.092 82.3569 154.827 81.6547 154.299 81.2197C153.771 80.7846 153.14 80.5671 152.407 80.5671C151.5 80.5671 150.794 80.8468 150.291 81.4061C149.787 81.9592 149.536 82.6707 149.536 83.5408V92.6667H146.758V83.1493C146.758 82.3724 146.516 81.7479 146.031 81.2756C145.546 80.8033 144.915 80.5671 144.139 80.5671C143.61 80.5671 143.122 80.707 142.675 80.9866C142.234 81.2601 141.876 81.6422 141.603 82.1332C141.336 82.6241 141.202 83.1928 141.202 83.8391V92.6667H138.415ZM161.289 98.0361C160.872 98.0361 160.493 98.0019 160.151 97.9335C159.809 97.8714 159.555 97.803 159.387 97.7284L160.058 95.4446C160.568 95.5813 161.021 95.6404 161.419 95.6217C161.817 95.6031 162.168 95.4539 162.472 95.1743C162.783 94.8946 163.057 94.4379 163.293 93.804L163.638 92.8532L158.399 78.3486H161.382L165.008 89.4601H165.157L168.783 78.3486H171.775L165.875 94.5777C165.601 95.3234 165.253 95.9542 164.831 96.47C164.408 96.992 163.905 97.3835 163.321 97.6446C162.736 97.9056 162.059 98.0361 161.289 98.0361ZM185.323 84.6967V86.0856C184.273 86.0856 183.539 86.3031 183.123 86.7381C182.707 87.1731 182.499 87.8878 182.499 88.8821V91.5668C182.499 92.5176 182.39 93.3162 182.172 93.9625C181.961 94.615 181.635 95.137 181.194 95.5285C180.752 95.92 180.193 96.2028 179.516 96.3768C178.838 96.5508 178.04 96.6378 177.12 96.6378V94.4286C177.841 94.4286 178.403 94.3198 178.807 94.1023C179.211 93.891 179.491 93.5616 179.646 93.1142C179.808 92.673 179.888 92.1106 179.888 91.427V88.0338C179.888 87.5553 179.96 87.1141 180.103 86.7102C180.246 86.3 180.51 85.9458 180.895 85.6475C181.281 85.343 181.83 85.1099 182.545 84.9484C183.26 84.7806 184.186 84.6967 185.323 84.6967ZM177.12 72.8581C178.04 72.8581 178.838 72.9451 179.516 73.1191C180.193 73.2931 180.752 73.5758 181.194 73.9674C181.635 74.3589 181.961 74.8809 182.172 75.5334C182.39 76.1797 182.499 76.9783 182.499 77.9291V80.6044C182.499 81.605 182.707 82.3227 183.123 82.7577C183.539 83.1865 184.273 83.4009 185.323 83.4009V84.7992C184.186 84.7992 183.26 84.7153 182.545 84.5475C181.83 84.3797 181.281 84.1467 180.895 83.8484C180.51 83.5501 180.246 83.199 180.103 82.795C179.96 82.3849 179.888 81.9405 179.888 81.462V78.0689C179.888 77.3791 179.808 76.8136 179.646 76.3724C179.491 75.9249 179.211 75.5955 178.807 75.3843C178.403 75.173 177.841 75.0673 177.12 75.0673V72.8581ZM185.323 83.4009V86.0856H182.741V83.4009H185.323Z" fill="white"/>
</svg>
