<svg width="356" height="125" viewBox="0 0 356 125" fill="none" xmlns="http://www.w3.org/2000/svg">
<path d="M3.79964 9.86427V0H5.35278V9.86427H3.79964ZM0 5.7691V4.09517H9.15242V5.7691H0Z" fill="white"/>
<path d="M42.2401 9.86427V0H43.7932V9.86427H42.2401ZM38.4404 5.7691V4.09517H47.5928V5.7691H38.4404Z" fill="white"/>
<path d="M80.6795 9.86427V0H82.2327V9.86427H80.6795ZM76.8799 5.7691V4.09517H86.0323V5.7691H76.8799Z" fill="white"/>
<path d="M119.12 9.86427V0H120.673V9.86427H119.12ZM115.32 5.7691V4.09517H124.473V5.7691H115.32Z" fill="white"/>
<path d="M157.56 9.86427V0H159.114V9.86427H157.56ZM153.761 5.7691V4.09517H162.913V5.7691H153.761Z" fill="white"/>
<path d="M196 9.86427V0H197.553V9.86427H196ZM192.2 5.7691V4.09517H201.353V5.7691H192.2Z" fill="white"/>
<path d="M234.44 9.86427V0H235.993V9.86427H234.44ZM230.641 5.7691V4.09517H239.793V5.7691H230.641Z" fill="white"/>
<path d="M272.881 9.86427V0H274.434V9.86427H272.881ZM269.081 5.7691V4.09517H278.233V5.7691H269.081Z" fill="white"/>
<path d="M311.321 9.86427V0H312.874V9.86427H311.321ZM307.521 5.7691V4.09517H316.673V5.7691H307.521Z" fill="white"/>
<path d="M349.761 9.86427V0H351.314V9.86427H349.761ZM345.961 5.7691V4.09517H355.114V5.7691H345.961Z" fill="white"/>
<path d="M3.79964 48.7048V38.8406H5.35278V48.7048H3.79964ZM0 44.6097V42.9357H9.15242V44.6097H0Z" fill="white"/>
<path d="M42.2401 48.7048V38.8406H43.7932V48.7048H42.2401ZM38.4404 44.6097V42.9357H47.5928V44.6097H38.4404Z" fill="white"/>
<path d="M80.6795 48.7048V38.8406H82.2327V48.7048H80.6795ZM76.8799 44.6097V42.9357H86.0323V44.6097H76.8799Z" fill="white"/>
<path d="M119.12 48.7048V38.8406H120.673V48.7048H119.12ZM115.32 44.6097V42.9357H124.473V44.6097H115.32Z" fill="white"/>
<path d="M157.56 48.7048V38.8406H159.114V48.7048H157.56ZM153.761 44.6097V42.9357H162.913V44.6097H153.761Z" fill="white"/>
<path d="M196 48.7048V38.8406H197.553V48.7048H196ZM192.2 44.6097V42.9357H201.353V44.6097H192.2Z" fill="white"/>
<path d="M234.44 48.7048V38.8406H235.993V48.7048H234.44ZM230.641 44.6097V42.9357H239.793V44.6097H230.641Z" fill="white"/>
<path d="M272.881 48.7048V38.8406H274.434V48.7048H272.881ZM269.081 44.6097V42.9357H278.233V44.6097H269.081Z" fill="white"/>
<path d="M311.321 48.7048V38.8406H312.874V48.7048H311.321ZM307.521 44.6097V42.9357H316.673V44.6097H307.521Z" fill="white"/>
<path d="M349.761 48.7048V38.8406H351.314V48.7048H349.761ZM345.961 44.6097V42.9357H355.114V44.6097H345.961Z" fill="white"/>
<path d="M3.79964 86.8057V76.9414H5.35278V86.8057H3.79964ZM0 82.7105V81.0366H9.15242V82.7105H0Z" fill="white"/>
<path d="M42.2401 86.8057V76.9414H43.7932V86.8057H42.2401ZM38.4404 82.7105V81.0366H47.5928V82.7105H38.4404Z" fill="white"/>
<path d="M80.6795 86.8057V76.9414H82.2327V86.8057H80.6795ZM76.8799 82.7105V81.0366H86.0323V82.7105H76.8799Z" fill="white"/>
<path d="M119.12 86.8057V76.9414H120.673V86.8057H119.12ZM115.32 82.7105V81.0366H124.473V82.7105H115.32Z" fill="white"/>
<path d="M157.56 86.8057V76.9414H159.114V86.8057H157.56ZM153.761 82.7105V81.0366H162.913V82.7105H153.761Z" fill="white"/>
<path d="M196 86.8057V76.9414H197.553V86.8057H196ZM192.2 82.7105V81.0366H201.353V82.7105H192.2Z" fill="white"/>
<path d="M234.44 86.8057V76.9414H235.993V86.8057H234.44ZM230.641 82.7105V81.0366H239.793V82.7105H230.641Z" fill="white"/>
<path d="M272.881 86.8057V76.9414H274.434V86.8057H272.881ZM269.081 82.7105V81.0366H278.233V82.7105H269.081Z" fill="white"/>
<path d="M311.321 86.8057V76.9414H312.874V86.8057H311.321ZM307.521 82.7105V81.0366H316.673V82.7105H307.521Z" fill="white"/>
<path d="M349.761 86.8057V76.9414H351.314V86.8057H349.761ZM345.961 82.7105V81.0366H355.114V82.7105H345.961Z" fill="white"/>
<path d="M3.79964 124.917V115.052H5.35278V124.917H3.79964ZM0 120.822V119.148H9.15242V120.822H0Z" fill="white"/>
<path d="M42.2401 124.917V115.052H43.7932V124.917H42.2401ZM38.4404 120.822V119.148H47.5928V120.822H38.4404Z" fill="white"/>
<path d="M80.6795 124.917V115.052H82.2327V124.917H80.6795ZM76.8799 120.822V119.148H86.0323V120.822H76.8799Z" fill="white"/>
<path d="M119.12 124.917V115.052H120.673V124.917H119.12ZM115.32 120.822V119.148H124.473V120.822H115.32Z" fill="white"/>
<path d="M157.56 124.917V115.052H159.114V124.917H157.56ZM153.761 120.822V119.148H162.913V120.822H153.761Z" fill="white"/>
<path d="M196 124.917V115.052H197.553V124.917H196ZM192.2 120.822V119.148H201.353V120.822H192.2Z" fill="white"/>
<path d="M234.44 124.917V115.052H235.993V124.917H234.44ZM230.641 120.822V119.148H239.793V120.822H230.641Z" fill="white"/>
<path d="M272.881 124.917V115.052H274.434V124.917H272.881ZM269.081 120.822V119.148H278.233V120.822H269.081Z" fill="white"/>
<path d="M311.321 124.917V115.052H312.874V124.917H311.321ZM307.521 120.822V119.148H316.673V120.822H307.521Z" fill="white"/>
<path d="M349.761 124.917V115.052H351.314V124.917H349.761ZM345.961 120.822V119.148H355.114V120.822H345.961Z" fill="white"/>
</svg>
